<?xml version="1.0" encoding="UTF-8"?>
<svg id="Layer_1" xmlns="http://www.w3.org/2000/svg" version="1.1" viewBox="0 0 666.7 119">
  <!-- Generator: Adobe Illustrator 29.3.1, SVG Export Plug-In . SVG Version: 2.1.0 Build 151)  -->
  <defs>
    <style>
      .st0 {
        fill: #f3ece1;
      }
    </style>
  </defs>
  <path class="st0" d="M29.7,31.8c4.4-9.3,9.1-18.4,13.4-27.7,3.4,0,6.8,0,10.2,0,13.4,27,26.7,54.1,40.3,81.1-12.4-.1-24.7,0-37.1,0-1.2-4.1-2.6-8.1-3.5-12.3-9.1,1-18.4,0-27.5.7-1.7,3.8-3.4,7.6-5.2,11.4-5.7.4-11.5.2-17.2.3,9.3-17.6,17.7-35.6,26.7-53.4ZM31.7,59.5c5.5,0,11,0,16.6,0,1.4,4.1,2.6,8.3,3.9,12.5,6.2-.7,12.6-.1,18.8-.5-7.3-15.5-15.5-30.6-22.8-46.1-5.8,11.2-10.9,22.8-16.5,34.1Z"/>
  <path class="st0" d="M632.9,11.1c2.8-1.6,6.2-.4,8,2.1-.2.5-.5,1.4-.7,1.8-1.7-1.6-3.5-4-6.1-2.9-2.7,1.3-2.3,4.7-2.4,7.2-.2,2.4,1.4,5.9,4.4,5.1,2-.8,3.1-2.9,4.5-4.4-.8,1.7-.5,4.2-2.4,5.3-2.8,1.8-7.2.1-7.7-3.3-.8-3.7-1-8.5,2.4-11Z"/>
  <path class="st0" d="M643.5,11.1l1.4-1.2c1.7,3.7,3.1,7.5,4.4,11.4,1.6-3.4,2.9-7,4.2-10.5h2.3c0,5,0,10.1,0,15.2-.5-.1-1.4-.3-1.9-.4.3-3.8.5-7.6.4-11.4-1.6,3.5-2.9,7.1-4.9,10.3-2.1-3.1-2.5-7-3.5-10.6-1.9,3.7-.6,8-.8,12-.5,0-1.5-.1-2.1-.2,0-4.9-.2-9.8.6-14.7Z"/>
  <path class="st0" d="M259.2,17.7c4.7,0,9.4,0,14.1,0-.6,7.9.3,15.8-.3,23.6,2.7-4.1,7.2-7,12.1-7.5,5.9-.7,12.3-.3,17.2,3.4,5.7,4.1,7.5,11.5,7.6,18.1,0,9.7,0,19.4,0,29.1-4.5,0-9,0-13.6,0,0-7.7,0-15.4,0-23.1-.2-4.4,0-9.4-3.4-12.8-4.4-4.1-11.9-3.7-16.2.3-2.9,3-3.9,7.4-3.8,11.5,0,8,0,16.1.1,24.1-4.6,0-9.1,0-13.7,0,0-22.2,0-44.5,0-66.7Z"/>
  <path class="st0" d="M608.4,17.8c4.8,0,9.5,0,14.3-.1.2,22.2,0,44.5.2,66.7-4.6-.2-9.3-.1-14,0,0-2.7-.1-5.4-.1-8.1-6.8,10.6-23.9,11.8-32.6,3-7.5-7.3-9.1-19-6.6-28.8,1.7-7.7,7.7-14.4,15.4-16.3,8.2-2.2,18.6-.5,23.5,7.1,0-7.8,0-15.7,0-23.5ZM591.6,45.9c-7.7,2.2-10.7,11.9-8,18.9,2.6,8,14.1,10.5,20.3,5.2,5.8-4.6,6-13.6,2.3-19.5-3.2-4.6-9.4-6-14.5-4.6Z"/>
  <path class="st0" d="M383.9,19.8c4.8-.1,9.5-.1,14.3-.1-.2,4.7-.2,9.5-.2,14.2,4,0,8.1,0,12.1,0-.2,3.9-.2,7.9-.1,11.8-4,0-8.1,0-12.1,0,0,7.2-.2,14.4,0,21.6,0,2.3,1.8,4.4,4.1,4.6,2.5.3,5,0,7.5,0,0,4,.2,8.1,0,12.1-6.8.4-14.7,1.7-20.5-2.7-4.4-3.2-5.3-9-5.3-14.1.1-7.2,0-14.4.2-21.6-2.3,0-4.6,0-6.9,0,0-3.9,0-7.8,0-11.6,2.2,0,4.5-.1,6.8-.3,0-4.6,0-9.3,0-13.9Z"/>
  <path class="st0" d="M103.8,84.5c8.7-21.6,16.8-43.5,25.2-65.2,6.5,0,13,0,19.5,0,8.1,21.7,16,43.5,24.8,65-5.3.2-10.6.3-15.9,0-1.4-4.1-2.8-8.2-4.1-12.4-9.8.3-19.5,0-29.2.2-1.4,4.2-2.7,8.4-4.3,12.5-5.3-.2-10.7-.1-16,0ZM137.9,32.5c-3.1,9.1-6.3,18.1-9.6,27.1,6.8,0,13.6,0,20.4,0-3.1-9.1-6.1-18.2-9.6-27.2-.3,0-.9,0-1.1,0Z"/>
  <path class="st0" d="M176.6,20c4.7,0,9.3,0,14-.1,0,21.5.1,43-.1,64.6-4.6,0-9.2,0-13.7,0,0-21.5,0-43-.1-64.5Z"/>
  <path class="st0" d="M213.2,41.7c7.7-9.6,23.9-10.9,32.6-2,8.1,7.7,9,20.5,5.2,30.5-3.1,8.5-11.7,14.9-20.9,14.5-6.6.3-12.5-3.2-16.9-7.9.2,9.5,0,18.9.2,28.4-4.7,0-9.4,0-14.2.2-.5-23.9-.2-47.8-.3-71.6,4.8,0,9.6,0,14.4.2,0,2.5-.1,5.1-.2,7.6ZM221.6,46c-11.6,2.9-12,21.8-1.3,26.2,3.7,1.3,8.2,1.4,11.6-.8,9-4.6,9-19.4.5-24.4-3.2-1.8-7.2-1.8-10.8-1Z"/>
  <path class="st0" d="M431.8,43.1c4.1-5.3,10-9.1,16.8-9.9.2,4.9.2,9.8.4,14.6-7.3.2-15.7,4.2-17.2,12.1-.6,8.1,0,16.2-.3,24.3-4.6.2-9.3.2-13.9.2,0-16.8,0-33.7,0-50.5,4.7,0,9.4,0,14.1,0,0,3,0,6.1.2,9.1Z"/>
  <path class="st0" d="M463.2,37.4c10.6-7,26.9-5.3,34.8,5.1,4.3,6.3,5.1,14.2,4.7,21.7-12.3,0-24.6,0-36.8,0,.8,5.8,6.8,9.1,12.3,8.4,3.8.1,6.8-2.4,10.1-3.7,4.5,1.4,9.2,2.3,14,3.1-8.7,13.4-29.2,17.2-41.9,7.1-12.4-10.5-10.9-33,2.9-41.7ZM473.2,45.4c-4.1,1.6-6.5,5.6-7.3,9.8,8,0,16.1.3,24.1-.2-1-2.9-2.1-6-4.5-7.9-3.4-2.9-8.3-3.1-12.3-1.6Z"/>
  <path class="st0" d="M524.4,41.4c2.7-3.7,6.4-6.6,11-7.4,6.8-1.1,14.6-.6,19.9,4.3,4.8,4.2,6.4,10.9,6.4,17,0,9.7,0,19.4,0,29.1-4.6,0-9.2,0-13.8,0,0-8.7,0-17.4,0-26.2,0-4.3-1.5-9.1-5.6-11.1-6.6-3.9-16.7.2-17.5,8.1-.9,9.6-.2,19.2-.4,28.9-4.7,0-9.3.2-14,.2,0-16.8,0-33.6,0-50.4,4.7,0,9.4,0,14,0,0,2.5,0,5,.2,7.4Z"/>
  <path class="st0" d="M328.7,36c9.1-4.3,21.9-3.1,27.9,5.8,0-2.6-.1-5.2-.2-7.7,4.8,0,9.6-.1,14.4-.1-.2,16.8-.1,33.7,0,50.5-4.8,0-9.5,0-14.3,0,0-2.4,0-4.8,0-7.1-3.3,3.2-7,6.4-11.5,7.4-6.4,1.3-13.6.7-18.9-3.5-7-5.2-9.9-14.3-9.6-22.7,0-8.8,3.9-18.4,12.2-22.4ZM339.6,46.1c-9.6,3.1-11.8,16.9-4.9,23.7,4.2,3.8,10.7,3.9,15.7,1.9,7.2-4.4,8.2-15.4,3.3-21.9-3.3-4.1-9.2-5.2-14.1-3.7Z"/>
</svg>